<svg id="Capa_1" enable-background="new 0 0 512 512" height="512" viewBox="0 0 512 512" width="512" xmlns="http://www.w3.org/2000/svg"><g><path d="m482.912 351.118c-.863-4.052-4.852-6.637-8.898-5.773-4.051.863-6.636 4.847-5.773 8.898 1.619 7.601.365 15.506-3.529 22.257-4.22 7.308-11.035 12.522-19.19 14.683-8.113 2.15-16.55 1.037-23.759-3.125-.83-.48-1.638-.999-2.429-1.561l-22.934-16.145c12.127-14.863 21.94-31.68 28.899-49.899l25.395 11.757c1.654.764 3.234 1.667 4.696 2.685 1.306.91 2.8 1.346 4.279 1.346 2.371 0 4.704-1.122 6.161-3.214 2.367-3.399 1.531-8.073-1.868-10.44-2.183-1.521-4.532-2.865-6.975-3.992l-26.895-12.451c4.595-15.93 7.063-32.753 7.063-50.142 0-17.388-2.469-34.21-7.063-50.139l26.877-12.444c1.252-.577 2.52-1.233 3.768-1.954 22.166-12.798 29.775-41.267 16.961-63.463-6.512-11.279-17.541-19.354-30.259-22.154-12.714-2.798-26.105-.106-36.745 7.389l-24.312 17.123c-23.28-24.154-53.186-41.871-86.76-50.204l2.661-29.491c.128-1.375.192-2.803.192-4.243 0-25.596-20.851-46.42-46.479-46.42-13.023 0-25.53 5.513-34.314 15.126-8.781 9.609-13.146 22.556-11.976 35.518l2.664 29.521c-14.85 3.673-29.216 9.198-42.661 16.492-3.641 1.975-4.991 6.528-3.017 10.168 1.976 3.641 6.525 4.992 10.169 3.016 24.135-13.093 51.499-20.013 79.135-20.013 91.621 0 166.16 74.543 166.16 166.17s-74.539 166.17-166.16 166.17c-91.626 0-166.17-74.543-166.17-166.17 0-51.09 23.005-98.604 63.115-130.36 3.248-2.571 3.796-7.288 1.225-10.536s-7.286-3.794-10.535-1.225c-6.453 5.109-12.489 10.602-18.11 16.417l-24.216-17.055c-1.149-.812-2.319-1.56-3.58-2.288-22.163-12.797-50.617-5.147-63.432 17.047-6.507 11.271-7.985 24.854-4.056 37.265 3.93 12.413 12.957 22.67 24.77 28.145l26.832 12.422c-4.607 16.088-7.012 32.94-7.012 50.167 0 17.39 2.469 34.213 7.064 50.144l-26.875 12.443c-1.282.592-2.516 1.232-3.77 1.956-22.161 12.796-29.766 41.263-16.952 63.458 6.508 11.271 17.53 19.343 30.243 22.146 3.299.727 6.643 1.084 9.973 1.084 9.508 0 18.903-2.915 26.788-8.464l24.308-17.12c23.282 24.152 53.189 41.869 86.764 50.201l-2.662 29.496c-.129 1.402-.191 2.792-.191 4.247 0 25.591 20.851 46.41 46.48 46.41 13.015 0 25.517-5.511 34.301-15.12 8.784-9.61 13.154-22.557 11.988-35.525l-2.663-29.509c33.574-8.333 63.479-26.05 86.759-50.203l24.289 17.099c1.143.812 2.347 1.585 3.585 2.302 7.122 4.113 15.044 6.214 23.085 6.214 4.006 0 8.042-.522 12.021-1.576 12.044-3.191 22.108-10.892 28.341-21.685 5.751-9.97 7.601-21.647 5.209-32.879zm-255.751-273.968-2.514-27.854c-.805-8.907 2.076-17.448 8.109-24.051 6.037-6.607 14.291-10.245 23.241-10.245 17.357 0 31.479 14.095 31.479 31.42 0 .993-.042 1.928-.13 2.876l-2.513 27.839c-9.395-1.509-19.024-2.305-28.838-2.305-9.677 0-19.323.789-28.834 2.32zm-165.849 102.65c-8.116-3.761-14.073-10.531-16.774-19.062-2.7-8.529-1.725-17.492 2.746-25.237 8.68-15.033 27.946-20.216 42.939-11.559.86.497 1.655 1.004 2.438 1.557l22.83 16.079c-12.309 15.057-22.04 31.899-28.888 49.93zm31.351 206.701c-7.316 5.148-16.158 6.923-24.896 4.996-8.736-1.926-16.011-7.252-20.482-14.997-8.679-15.032-3.537-34.308 11.462-42.967.855-.494 1.692-.928 2.564-1.331l25.375-11.748c6.959 18.22 16.774 35.037 28.903 49.901zm194.684 76.2c.801 8.91-2.083 17.454-8.12 24.059-6.037 6.604-14.286 10.24-23.229 10.24-17.358 0-31.48-14.09-31.48-31.41 0-.992.042-1.932.13-2.886l2.512-27.839c9.394 1.509 19.024 2.305 28.837 2.305s19.443-.796 28.838-2.305zm131.986-337.203c7.31-5.149 16.147-6.927 24.882-5.002 8.74 1.924 16.019 7.253 20.494 15.005 8.679 15.033 3.533 34.31-11.469 42.971-.862.498-1.693.929-2.558 1.327l-25.382 11.751c-6.958-18.219-16.772-35.037-28.899-49.901z" style="stroke:#dfa974;fill-rule:nonzero;fill:#dfa974;fill-opacity:1;"/><path d="m107.517 256c0 81.871 66.606 148.478 148.478 148.478s148.477-66.607 148.477-148.478-66.606-148.478-148.478-148.478-148.477 66.607-148.477 148.478zm281.955 0c0 10.233-1.161 20.199-3.352 29.777l-64.292-29.776 64.292-29.777c2.191 9.578 3.352 19.544 3.352 29.776zm-91.263 45.213c8.84-8.259 15.257-19.069 18.078-31.248l65.602 30.383c-5.549 15.704-13.953 30.07-24.593 42.467zm48.568 52.541c-14.539 13.511-32.081 23.831-51.506 29.824l-6.358-70.565zm-30.49-111.718c-2.82-12.179-9.237-22.989-18.077-31.248l59.087-41.602c10.64 12.397 19.043 26.763 24.592 42.467zm-27.374-43.047 6.358-70.567c19.426 5.993 36.968 16.313 51.507 29.825zm13.982 57.011c0 25.861-21.039 46.9-46.9 46.9s-46.9-21.04-46.9-46.9 21.039-46.9 46.9-46.9 46.9 21.039 46.9 46.9zm-180.378 0c0-10.233 1.161-20.199 3.352-29.778l64.296 29.779-64.295 29.778c-2.192-9.579-3.353-19.546-3.353-29.779zm73.186 13.967c2.821 12.179 9.238 22.989 18.079 31.248l-59.087 41.602c-10.64-12.397-19.044-26.763-24.593-42.467zm27.379 43.044-6.359 70.568c-19.427-5.992-36.969-16.312-51.509-29.823zm-9.301-102.225c-8.84 8.259-15.258 19.07-18.078 31.248l-65.602-30.383c5.549-15.704 13.953-30.07 24.593-42.468zm-48.568-52.541c14.54-13.512 32.083-23.832 51.51-29.824l6.359 70.569zm66.243 228.963 6.488-72c5.714 1.745 11.773 2.692 18.05 2.692 6.279 0 12.34-.947 18.056-2.693l6.487 72c-7.958 1.485-16.16 2.27-24.543 2.27-8.38.001-16.581-.784-24.538-2.269zm49.081-262.415-6.487 72c-5.715-1.747-11.776-2.693-18.056-2.693-6.277 0-12.336.946-18.05 2.692l-6.488-72c7.957-1.485 16.157-2.269 24.538-2.269 8.383-.001 16.585.784 24.543 2.27z" style="stroke:#dfa974;fill-rule:nonzero;fill:#dfa974;fill-opacity:1;"/></g></svg>