<?xml version="1.0"?>
<svg xmlns="http://www.w3.org/2000/svg" viewBox="0 0 128 128" width="250" height="250"><title>ART THERAPY</title><g id="Layer_3" data-name="Layer 3"><path d="M30.1,57.233a1.747,1.747,0,0,0,0,1.752,12.167,12.167,0,0,0,19.625,2.038,12.168,12.168,0,0,0,19.626-2.037,1.749,1.749,0,0,0,0-1.753A12.184,12.184,0,0,0,64.9,52.788,19.763,19.763,0,0,0,69.589,40v-.307a1.75,1.75,0,0,0-1.75-1.75,19.648,19.648,0,0,0-9.9,2.658A16.319,16.319,0,0,0,50.6,31.48a1.747,1.747,0,0,0-1.753,0A16.32,16.32,0,0,0,41.514,40.6a19.647,19.647,0,0,0-9.9-2.658,1.75,1.75,0,0,0-1.75,1.75V40a19.763,19.763,0,0,0,4.69,12.79A12.18,12.18,0,0,0,30.1,57.233Zm35.641.875A8.7,8.7,0,0,1,53.2,59.556a19.981,19.981,0,0,0,9.1-4.182A8.689,8.689,0,0,1,65.744,58.108ZM58.675,44.251a16.146,16.146,0,0,1,7.342-2.71A16.422,16.422,0,0,1,55.455,55.318,16.352,16.352,0,0,0,58.675,44.251Zm-8.947-9.185a12.881,12.881,0,0,1,0,20.966,12.739,12.739,0,0,1,0-20.966Zm-8.947,9.185A16.36,16.36,0,0,0,44,55.318,16.54,16.54,0,0,1,33.44,41.541,16.144,16.144,0,0,1,40.781,44.251ZM37.158,55.374a19.98,19.98,0,0,0,9.1,4.182,8.7,8.7,0,0,1-12.544-1.447A8.687,8.687,0,0,1,37.158,55.374Z" style="stroke:#dfa974;fill-rule:nonzero;fill:#dfa974;fill-opacity:1;" /><path d="M125.21,19.31a9.521,9.521,0,0,0-13.99.57L95.76,37.69l-6.95,7.99V18a5.757,5.757,0,0,0-5.75-5.75H68.58a8.164,8.164,0,0,0-6.4-6.43A7.43,7.43,0,0,0,54.94,0H44.52a7.43,7.43,0,0,0-7.24,5.82,8.15,8.15,0,0,0-6.4,6.43H16.4A5.751,5.751,0,0,0,10.65,18V80.58H7.56a7.585,7.585,0,0,0,0,15.17H16.6L7.3,125.73A1.746,1.746,0,0,0,8.97,128H22.95a1.74,1.74,0,0,0,1.67-1.23l9.63-31.02h6.93v20.49a1.746,1.746,0,0,0,1.75,1.75H56.91a1.752,1.752,0,0,0,1.75-1.75V95.75h6.55l9.62,31.02A1.762,1.762,0,0,0,76.51,128H90.49a1.753,1.753,0,0,0,1.41-.71,1.773,1.773,0,0,0,.26-1.56L82.85,95.75H91.9a7.585,7.585,0,0,0,0-15.17H88.81V68.16a17.685,17.685,0,0,0,4.37-3.09l1.46-1.43a9.6,9.6,0,0,0,2.84-6.76l9.35-8.12,17.79-15.45a9.513,9.513,0,0,0,.59-14ZM38.85,9.17A1.752,1.752,0,0,0,40.6,7.42,3.926,3.926,0,0,1,44.52,3.5H54.94a3.918,3.918,0,0,1,3.91,3.92A1.758,1.758,0,0,0,60.6,9.17a4.629,4.629,0,0,1,4.36,3.08H34.49A4.639,4.639,0,0,1,38.85,9.17ZM14.15,18a2.247,2.247,0,0,1,2.25-2.25H83.06A2.253,2.253,0,0,1,85.31,18V47.35a9.813,9.813,0,0,0-7.25,8.52c-.18,2.02.4,3.98-.02,6a8.43,8.43,0,0,1-1.2,3.02c-.55.81-1.47,1.43-1.79,2.39a1.764,1.764,0,0,0,1.21,2.22,17.792,17.792,0,0,0,9.05,0V80.58H14.15ZM81.7,61.32a8.9,8.9,0,0,1,.8.7,8.1,8.1,0,0,1,2.19,4.01c-.04.01-.07.02-.1.03a14.457,14.457,0,0,1-4.62.5A12.455,12.455,0,0,0,81.7,61.32ZM21.66,124.5H11.35l8.92-28.75H30.58Zm33.5-10.01H44.68V95.75H55.16ZM88.11,124.5H77.79L68.87,95.75H79.19ZM91.9,84.08a4.085,4.085,0,0,1,0,8.17H7.56a4.085,4.085,0,0,1,0-8.17Zm.28-22.93a22.25,22.25,0,0,1-4.24,3.5,11.559,11.559,0,0,0-2.97-5.11,11.342,11.342,0,0,0-3.42-2.35,6.211,6.211,0,0,1,3.84-6.17,6.375,6.375,0,0,1,7.38,2.04A6.28,6.28,0,0,1,92.18,61.15Zm4.52-8.23a9.742,9.742,0,0,0-5.11-5.09l5.58-6.43,5.95,5.95Zm25.66-22.28-.02.02L105.77,45.05l-3.15-3.15-3.15-3.15,14.41-16.59a6.018,6.018,0,1,1,8.48,8.48Z" style="stroke:#dfa974;fill-rule:nonzero;fill:#dfa974;fill-opacity:1;"/></g></svg>
